<svg width="1331" height="573" viewBox="0 0 1331 573" fill="none" xmlns="http://www.w3.org/2000/svg">
<path d="M45.166 455V193.507H1266.66V12" stroke="#8E8E8E" stroke-opacity="0.69" stroke-miterlimit="10" stroke-linecap="round" stroke-linejoin="round" stroke-dasharray="4 4"/>
<path d="M91.8314 453.301V481.468C91.8314 483.665 90.0473 485.449 87.8502 485.449H4.17549C1.96081 485.449 0.167969 483.665 0.167969 481.468V453.301C0.167969 451.086 1.95202 449.293 4.17549 449.293H87.8502C90.0473 449.302 91.8314 451.086 91.8314 453.301Z" fill="#EAEAEA"/>
<path d="M23.1941 485.467H5.98633V490.538H23.1941V485.467Z" fill="#8E8E8E"/>
<path d="M86.0398 485.467H68.832V490.538H86.0398V485.467Z" fill="#8E8E8E"/>
<path d="M91.8314 472.451V481.477C91.8314 483.674 90.0473 485.458 87.8502 485.458H4.17549C1.96081 485.458 0.167969 483.674 0.167969 481.477V472.451H91.8314Z" fill="#C1C1C1"/>
<path d="M84.2647 463.241H59.6834C58.33 463.241 57.2227 462.142 57.2227 460.78C57.2227 459.427 58.3212 458.319 59.6834 458.319H84.2647C85.6181 458.319 86.7254 459.418 86.7254 460.78C86.7167 462.142 85.6181 463.241 84.2647 463.241Z" fill="white"/>
<path d="M13.9836 460.789C13.9836 459.646 13.052 458.715 11.9095 458.715C10.767 458.715 9.83545 459.646 9.83545 460.789C9.83545 461.931 10.767 462.863 11.9095 462.863C13.052 462.863 13.9836 461.931 13.9836 460.789Z" fill="#23D169"/>
<path d="M25.6545 460.789C25.6545 459.646 24.7229 458.715 23.5804 458.715C22.4379 458.715 21.5063 459.646 21.5063 460.789C21.5063 461.931 22.4379 462.863 23.5804 462.863C24.7229 462.863 25.6545 461.931 25.6545 460.789Z" fill="white"/>
<path d="M37.3259 460.789C37.3259 459.646 36.3943 458.715 35.2518 458.715C34.1093 458.715 33.1777 459.646 33.1777 460.789C33.1777 461.931 34.1093 462.863 35.2518 462.863C36.4031 462.863 37.3259 461.931 37.3259 460.789Z" fill="white"/>
<path d="M23.1941 526.694H5.98633V531.765H23.1941V526.694Z" fill="#8E8E8E"/>
<path d="M86.0398 526.694H68.832V531.765H86.0398V526.694Z" fill="#8E8E8E"/>
<path d="M91.8314 494.545V522.712C91.8314 524.909 90.0473 526.693 87.8502 526.693H4.17549C1.96081 526.693 0.167969 524.909 0.167969 522.712V494.545C0.167969 492.33 1.95202 490.538 4.17549 490.538H87.8502C90.0473 490.538 91.8314 492.33 91.8314 494.545Z" fill="#EAEAEA"/>
<path d="M91.8314 513.686V522.712C91.8314 524.909 90.0473 526.693 87.8502 526.693H4.17549C1.96081 526.693 0.167969 524.909 0.167969 522.712V513.686H91.8314Z" fill="#C1C1C1"/>
<path d="M84.2647 504.485H59.6834C58.33 504.485 57.2227 503.386 57.2227 502.024C57.2227 500.671 58.3212 499.563 59.6834 499.563H84.2647C85.6181 499.563 86.7254 500.662 86.7254 502.024C86.7167 503.378 85.6181 504.485 84.2647 504.485Z" fill="white"/>
<path d="M13.9836 502.024C13.9836 500.881 13.052 499.95 11.9095 499.95C10.767 499.95 9.83545 500.881 9.83545 502.024C9.83545 503.166 10.767 504.098 11.9095 504.098C13.052 504.098 13.9836 503.166 13.9836 502.024Z" fill="#23D169"/>
<path d="M25.6545 502.024C25.6545 500.881 24.7229 499.95 23.5804 499.95C22.4379 499.95 21.5063 500.881 21.5063 502.024C21.5063 503.166 22.4379 504.098 23.5804 504.098C24.7229 504.098 25.6545 503.166 25.6545 502.024Z" fill="white"/>
<path d="M37.3259 502.024C37.3259 500.881 36.3943 499.95 35.2518 499.95C34.1093 499.95 33.1777 500.881 33.1777 502.024C33.1777 503.166 34.1093 504.098 35.2518 504.098C36.4031 504.098 37.3259 503.166 37.3259 502.024Z" fill="white"/>
<path d="M23.1941 567.929H5.98633V573H23.1941V567.929Z" fill="#8E8E8E"/>
<path d="M86.0398 567.929H68.832V573H86.0398V567.929Z" fill="#8E8E8E"/>
<path d="M91.8314 535.781V563.948C91.8314 566.145 90.0473 567.929 87.8502 567.929H4.17549C1.96081 567.929 0.167969 566.145 0.167969 563.948V535.781C0.167969 533.566 1.95202 531.773 4.17549 531.773H87.8502C90.0473 531.773 91.8314 533.566 91.8314 535.781Z" fill="#EAEAEA"/>
<path d="M91.8314 554.922V563.948C91.8314 566.145 90.0473 567.929 87.8502 567.929H4.17549C1.96081 567.929 0.167969 566.145 0.167969 563.948V554.922H91.8314Z" fill="#C1C1C1"/>
<path d="M84.2647 545.721H59.6834C58.33 545.721 57.2227 544.622 57.2227 543.26C57.2227 541.907 58.3212 540.799 59.6834 540.799H84.2647C85.6181 540.799 86.7254 541.898 86.7254 543.26C86.7167 544.622 85.6181 545.721 84.2647 545.721Z" fill="white"/>
<path d="M13.9836 543.26C13.9836 542.117 13.052 541.186 11.9095 541.186C10.767 541.186 9.83545 542.117 9.83545 543.26C9.83545 544.402 10.767 545.334 11.9095 545.334C13.052 545.334 13.9836 544.411 13.9836 543.26Z" fill="#23D169"/>
<path d="M25.6545 543.26C25.6545 542.117 24.7229 541.186 23.5804 541.186C22.4379 541.186 21.5063 542.117 21.5063 543.26C21.5063 544.402 22.4379 545.334 23.5804 545.334C24.7229 545.334 25.6545 544.411 25.6545 543.26Z" fill="white"/>
<path d="M37.3259 543.26C37.3259 542.117 36.3943 541.186 35.2518 541.186C34.1093 541.186 33.1777 542.117 33.1777 543.26C33.1777 544.402 34.1093 545.334 35.2518 545.334C36.4031 545.334 37.3259 544.411 37.3259 543.26Z" fill="white"/>
<path d="M1317.83 44.3601H1316.15C1314.5 44.3601 1313.2 42.9594 1313.32 41.3174C1313.35 40.9823 1313.36 40.6406 1313.36 40.2921C1313.36 32.6518 1307.49 26.3788 1300.02 25.722C1300.02 25.7019 1300.02 25.6818 1300.02 25.6617C1300.02 11.4871 1288.53 0 1274.36 0C1263.82 0 1254.78 6.35344 1250.82 15.4346C1248.76 14.8984 1246.57 14.6772 1244.31 14.8046C1233.72 15.4212 1225.15 24.0667 1224.61 34.6624C1224.5 36.7936 1224.72 38.8578 1225.2 40.8148C1225.65 42.6176 1224.3 44.3601 1222.45 44.3601C1215.82 44.3601 1209.98 49.7753 1209.81 56.4035C1209.62 63.3869 1215.23 69.097 1222.17 69.097H1317.83C1324.66 69.097 1330.2 63.5612 1330.2 56.7252C1330.2 49.9026 1324.66 44.3601 1317.83 44.3601Z" fill="#EAEAEA"/>
<g clip-path="url(#clip0_54_139)">
<path d="M1268.17 57.6367C1271.48 57.6367 1274.72 56.6541 1277.47 54.813C1280.23 52.972 1282.38 50.3552 1283.65 47.2937C1284.91 44.2321 1285.24 40.8633 1284.6 37.6132C1283.95 34.363 1282.36 31.3776 1280.01 29.0344C1277.67 26.6912 1274.68 25.0955 1271.43 24.449C1268.18 23.8025 1264.82 24.1343 1261.75 25.4024C1258.69 26.6705 1256.08 28.8181 1254.23 31.5734C1252.39 34.3287 1251.41 37.5681 1251.41 40.8819C1251.41 43.0837 1251.83 45.2648 1252.68 47.3001C1253.52 49.3353 1254.75 51.1845 1256.31 52.7414C1257.86 54.2983 1259.71 55.5323 1261.75 56.3724C1263.78 57.2125 1265.96 57.6421 1268.17 57.6367V57.6367Z" fill="#FF9431"/>
<path d="M1277.07 49.7631C1273 49.4934 1269.23 47.4088 1266.84 44.055C1266.84 44.055 1266.84 44.0549 1266.84 44.0549L1257.99 31.6468C1262.01 31.94 1265.72 33.9965 1268.1 37.2954C1268.1 37.2954 1268.1 37.2955 1268.1 37.2955L1277.07 49.7631Z" fill="white" stroke="#FF9431"/>
<path d="M1277.07 31.6449L1268.23 44.0526C1268.23 44.0526 1268.23 44.0526 1268.23 44.0527C1265.84 47.4064 1262.07 49.4911 1258 49.7607L1266.97 37.2951C1269.35 33.9963 1273.05 31.9397 1277.07 31.6449Z" fill="white" stroke="#FF9431"/>
<path d="M1277.07 31.6458L1270.84 40.3862C1269.77 40.5825 1268.66 40.6857 1267.53 40.6857C1266.4 40.6857 1265.3 40.5825 1264.22 40.3862L1257.99 31.645C1259.7 31.771 1261.35 32.2182 1262.87 32.9395C1262.87 32.9418 1262.88 32.9437 1262.88 32.9453L1262.89 32.9508C1263.55 33.2664 1264.19 33.6337 1264.79 34.0507L1264.8 34.0581C1264.8 34.0633 1264.82 34.0716 1264.83 34.0812C1265.45 34.5122 1266.03 34.9888 1266.56 35.5163L1266.56 35.5164L1266.57 35.5251C1266.59 35.5377 1266.59 35.5397 1266.59 35.5438C1266.6 35.5491 1266.6 35.5578 1266.64 35.5975L1266.64 35.5994C1266.82 35.7735 1266.99 35.9547 1267.16 36.1388L1267.53 36.5517L1267.9 36.1401C1268.06 35.964 1268.23 35.7929 1268.39 35.6249C1268.42 35.599 1268.44 35.5736 1268.46 35.5565L1268.46 35.554C1268.48 35.5328 1268.49 35.5226 1268.5 35.5143L1268.5 35.5143L1268.51 35.5093C1268.76 35.2652 1269.02 35.0315 1269.29 34.8064C1269.3 34.7926 1269.32 34.7785 1269.34 34.7625L1269.34 34.7618C1269.36 34.7456 1269.38 34.7274 1269.41 34.7089L1269.41 34.7078C1269.65 34.5088 1269.9 34.3173 1270.16 34.1352C1270.19 34.1169 1270.21 34.0991 1270.23 34.0864L1270.24 34.0788C1270.26 34.0673 1270.27 34.0607 1270.28 34.0545L1270.28 34.0545L1270.28 34.0524C1270.88 33.6351 1271.51 33.27 1272.17 32.9535L1272.17 32.9536L1272.18 32.9497L1272.2 32.9392L1272.2 32.9386C1272.21 32.9347 1272.22 32.9291 1272.24 32.9231C1273.74 32.2117 1275.38 31.7718 1277.07 31.6458ZM1266.96 35.2105C1266.95 35.1934 1266.93 35.1761 1266.91 35.1596L1268.04 35.2675C1267.99 35.3241 1267.93 35.3811 1267.88 35.4387C1267.88 35.4493 1267.89 35.46 1267.9 35.4707L1267.53 35.8048L1267.16 35.4694C1267.17 35.459 1267.18 35.4487 1267.19 35.4383C1267.13 35.3727 1267.06 35.3078 1267 35.2439C1266.99 35.233 1266.98 35.2218 1266.96 35.2105Z" fill="white" stroke="#FF9431"/>
</g>
<rect x="1277.38" y="22.6164" width="12.4039" height="12.4039" rx="6.20194" fill="#23D169"/>
<rect x="1277.38" y="22.6164" width="12.4039" height="12.4039" rx="6.20194" stroke="#F7F7FC"/>
<path fill-rule="evenodd" clip-rule="evenodd" d="M1286.42 26.2437L1282.43 30.1029L1281.36 28.9692C1281.17 28.7849 1280.86 28.7737 1280.64 28.9301C1280.42 29.092 1280.36 29.3769 1280.49 29.6059L1281.75 31.65C1281.87 31.8398 1282.09 31.9571 1282.33 31.9571C1282.55 31.9571 1282.77 31.8398 1282.89 31.65C1283.1 31.3875 1286.93 26.8134 1286.93 26.8134C1287.44 26.2996 1286.83 25.8472 1286.42 26.2381V26.2437Z" fill="white"/>
<defs>
<clipPath id="clip0_54_139">
<rect width="33.5097" height="33.5097" fill="white" transform="translate(1251.41 24.127)"/>
</clipPath>
</defs>
</svg>
