<svg width="1440" height="770" viewBox="0 0 1440 770" fill="none" xmlns="http://www.w3.org/2000/svg">
<g clip-path="url(#clip0_53_5)">
<mask id="path-1-inside-1_53_5" fill="white">
<path d="M0 0H1440V770H0V0Z"/>
</mask>
<path d="M0 0H1440V770H0V0Z" fill="#FDFBFA"/>
<g opacity="0.76">
<path d="M927.56 776.809H1409.07C1409.07 776.809 1435.67 623.113 1433.52 616.037C1431.37 608.954 1290.99 519.438 1290.99 519.438L1276.13 437.701L1243.03 390.415L1232.89 303.274L1178.85 254.637L1137.65 344.48L1115.35 416.76L1074.82 451.211L1020.11 437.701L988.887 556.22H953.462L945.307 625.711L927.56 776.809Z" fill="#F9E9DE" fill-opacity="0.36"/>
<g opacity="0.91">
<path d="M776.245 779.096L1484.01 776.589C1484.01 776.589 1512.48 734.474 1509.66 729.328C1506.84 724.173 1452.63 672.252 1452.63 672.252L1410.55 597.798L1290.99 518.087L1278.83 436.349L1242.35 389.063L1179.04 414.654L1130.64 550.233L1123.46 548.339L1067.96 543.081L933.387 655.986L886.924 679.535L776.245 729.328V779.096Z" fill="#E9D9C8" fill-opacity="0.5"/>
<path d="M1221.41 509.305L1172.62 613.41L1234.92 691.376L1364.31 599.722L1425.61 624.803L1402.1 691.376L1352.94 720.801L1452.63 767.166L1509.66 729.344C1506.84 724.189 1452.63 672.268 1452.63 672.268L1435.53 612.342L1292.34 518.763L1278.15 437.025L1241.67 390.415L1221.41 509.305Z" fill="#F8EEE8"/>
<path d="M876.271 706.551L949.629 761.459L994.003 692.581L969.556 656.388L994.003 604.459L1072.67 641.744L1130.63 559.178L1123.46 548.331L1067.96 541.055L933.387 655.979L885.574 678.184L876.271 706.551Z" fill="#FDF2EA"/>
</g>
</g>
<g opacity="0.76">
<path d="M664.401 795.307H308.001C308.001 795.307 288.309 681.544 289.901 676.307C291.494 671.064 395.401 604.807 395.401 604.807L406.401 544.307L430.901 509.307L438.401 444.807L478.401 408.807L508.901 475.307L525.401 528.807L555.401 554.307L595.901 544.307L619.009 632.032H645.23L651.266 683.468L664.401 795.307Z" fill="#F9E9DE" fill-opacity="0.36"/>
<g opacity="0.91">
<path d="M776.401 797L252.533 795.144C252.533 795.144 231.461 763.972 233.547 760.162C235.632 756.347 275.757 717.916 275.757 717.916L306.901 662.807L395.401 603.807L404.401 543.306L431.401 508.306L478.263 527.248L514.085 627.601L519.404 626.198L560.479 622.307L660.089 705.877L694.479 723.307L776.401 760.162V797Z" fill="#E9D9C8" fill-opacity="0.5"/>
<path d="M446.901 597.307L483.016 674.363L436.901 732.072L341.13 664.231L295.753 682.796L313.158 732.072L349.545 753.851L275.756 788.17L233.545 760.174C235.631 756.359 275.756 717.928 275.756 717.928L288.413 673.573L394.401 604.307L404.901 543.807L431.901 509.307L446.901 597.307Z" fill="#F8EEE8"/>
<path d="M702.365 743.304L648.067 783.945L615.223 732.963L633.318 706.174L615.223 667.737L556.997 695.335L514.091 634.221L519.404 626.193L560.479 620.807L660.089 705.871L695.479 722.307L702.365 743.304Z" fill="#FDF2EA"/>
</g>
</g>
</g>
<path d="M0 1H1440V-1H0V1Z" fill="#F0EDEC" mask="url(#path-1-inside-1_53_5)"/>
<defs>
<clipPath id="clip0_53_5">
<path d="M0 0H1440V770H0V0Z" fill="white"/>
</clipPath>
</defs>
</svg>
